<?xml version="1.0" standalone="no"?>
<!DOCTYPE svg PUBLIC "-//W3C//DTD SVG 20010904//EN"
 "http://www.w3.org/TR/2001/REC-SVG-20010904/DTD/svg10.dtd">
<svg version="1.0" xmlns="http://www.w3.org/2000/svg"
 width="682.000000pt" height="635.000000pt" viewBox="0 0 682.000000 635.000000"
 preserveAspectRatio="xMidYMid meet">

<g transform="translate(0.000000,635.000000) scale(0.100000,-0.100000)"
fill="#000000" stroke="none">
<path d="M3285 5993 c-226 -10 -385 -31 -575 -78 -783 -194 -1427 -702 -1791
-1410 -137 -266 -206 -469 -268 -785 -55 -285 -55 -683 0 -970 113 -582 355
-1046 754 -1446 276 -277 539 -458 876 -603 319 -136 641 -207 996 -218 636
-20 1234 170 1743 553 174 131 305 256 448 424 342 404 543 852 629 1400 25
163 25 586 0 750 -68 437 -209 809 -435 1150 -324 487 -796 862 -1331 1059
-337 124 -721 188 -1046 174z m395 -143 c480 -60 958 -262 1330 -561 195 -156
323 -291 477 -499 296 -402 469 -881 504 -1390 15 -232 2 -422 -47 -675 -239
-1224 -1320 -2115 -2569 -2117 -483 -1 -946 125 -1365 372 -159 93 -368 257
-502 392 -409 413 -660 914 -750 1493 -30 200 -31 541 0 740 73 471 256 896
547 1270 175 224 433 453 680 602 369 223 752 347 1195 387 75 7 410 -2 500
-14z"/>
<path d="M3244 4785 c-10 -26 7 -35 67 -35 l59 0 0 -44 0 -44 -57 -7 c-144
-17 -293 -78 -398 -163 -68 -55 -84 -77 -69 -92 8 -8 26 2 65 35 422 363 1069
157 1215 -386 26 -98 24 -272 -5 -373 -37 -133 -94 -229 -191 -326 -124 -124
-244 -188 -404 -217 -209 -37 -447 28 -609 167 -56 48 -77 55 -77 25 0 -19 84
-90 160 -136 296 -176 683 -133 935 103 112 104 183 222 227 375 29 101 31
293 4 392 -40 146 -129 295 -232 390 l-62 56 20 39 c19 37 19 66 -1 66 -6 0
-20 -18 -31 -40 -11 -22 -23 -40 -26 -40 -3 0 -18 8 -32 18 -74 51 -202 93
-332 110 l-55 7 0 40 0 40 63 3 c46 2 65 7 69 18 10 28 -19 34 -160 34 -111 0
-139 -3 -143 -15z"/>
<path d="M3605 4156 c-78 -123 -119 -178 -141 -191 -80 -44 -74 -152 10 -193
64 -32 146 22 146 96 0 21 30 122 71 234 39 109 69 204 66 213 -16 41 -44 12
-152 -159z m16 -124 c-27 -73 -47 -141 -44 -151 12 -47 -46 -90 -92 -69 -47
21 -46 97 2 117 19 8 52 48 102 127 40 63 75 113 77 111 2 -2 -18 -63 -45
-135z"/>
<path d="M2677 4126 c-3 -8 -3 -17 0 -20 4 -3 143 -6 310 -6 296 0 303 0 303
20 0 20 -7 20 -304 20 -251 0 -305 -2 -309 -14z"/>
<path d="M2607 3893 c-4 -3 -7 -12 -7 -20 0 -10 58 -13 311 -13 290 0 310 1
307 18 -3 16 -27 17 -304 20 -165 1 -303 -1 -307 -5z"/>
<path d="M2545 3650 c-17 -27 16 -30 311 -30 286 0 305 1 302 18 -3 16 -27 17
-305 20 -196 1 -304 -1 -308 -8z"/>
<path d="M1550 2357 c0 -29 -5 -58 -12 -65 -9 -9 -9 -15 0 -24 7 -7 12 -36 12
-65 0 -46 3 -53 19 -53 17 0 20 9 23 63 1 34 1 92 -1 130 -3 58 -6 67 -22 67
-16 0 -19 -8 -19 -53z"/>
<path d="M1668 2345 c-1 -36 -1 -95 0 -131 4 -60 5 -65 25 -62 21 3 22 8 22
86 -1 45 2 82 5 82 3 0 26 -37 51 -83 32 -58 52 -83 68 -85 19 -3 21 1 21 48
0 28 5 60 10 70 7 13 7 21 0 25 -5 3 -10 31 -10 61 0 47 -3 54 -20 54 -17 0
-19 -8 -22 -87 l-3 -88 -48 88 c-39 71 -52 87 -72 87 -22 0 -24 -4 -27 -65z"/>
<path d="M1938 2345 c-1 -36 -1 -95 0 -131 4 -60 5 -65 25 -62 19 3 22 10 25
56 l3 52 45 0 c37 0 44 3 44 20 0 17 -7 20 -45 20 -45 0 -45 0 -45 35 l0 35
55 0 c48 0 55 2 55 20 0 18 -7 20 -79 20 l-79 0 -4 -65z"/>
<path d="M2170 2357 c0 -29 -5 -58 -12 -65 -9 -9 -9 -15 0 -24 7 -7 12 -36 12
-65 0 -46 3 -53 20 -53 17 0 20 7 20 51 0 28 5 59 10 69 7 13 7 21 0 25 -5 3
-10 31 -10 61 0 47 -2 54 -20 54 -17 0 -20 -7 -20 -53z"/>
<path d="M2299 2408 c-1 -2 -2 -25 -3 -53 -1 -27 -5 -56 -9 -62 -5 -7 -5 -17
-2 -23 3 -5 8 -31 10 -57 2 -27 4 -51 4 -55 1 -5 10 -8 21 -8 17 0 19 8 22 86
l3 86 48 -86 c35 -62 53 -86 67 -86 17 0 20 7 20 53 0 29 5 58 12 65 9 9 9 15
0 24 -7 7 -12 36 -12 65 0 46 -3 53 -20 53 -17 0 -19 -8 -22 -86 l-3 -86 -48
86 c-35 62 -53 86 -67 86 -11 0 -21 -1 -21 -2z"/>
<path d="M2570 2357 c0 -29 -5 -58 -12 -65 -9 -9 -9 -15 0 -24 7 -7 12 -36 12
-65 0 -46 3 -53 20 -53 18 0 20 7 20 58 0 32 5 63 12 70 9 9 9 12 0 12 -8 0
-12 20 -12 60 0 53 -2 60 -20 60 -17 0 -20 -7 -20 -53z"/>
<path d="M2662 2393 c2 -13 14 -19 41 -21 34 -3 37 -5 37 -36 0 -17 -5 -37
-12 -44 -9 -9 -9 -15 0 -24 7 -7 12 -36 12 -65 0 -46 3 -53 20 -53 17 0 20 7
20 53 0 29 5 58 12 65 9 9 9 15 0 24 -7 7 -12 27 -12 44 0 31 3 33 37 36 27 2
39 8 41 21 3 15 -7 17 -98 17 -91 0 -101 -2 -98 -17z"/>
<path d="M2910 2357 c0 -29 -5 -58 -12 -65 -9 -9 -9 -15 0 -24 7 -7 12 -36 12
-65 l0 -53 80 0 c73 0 80 2 80 20 0 18 -7 20 -60 20 l-60 0 0 35 c0 35 0 35
45 35 38 0 45 3 45 20 0 17 -7 20 -45 20 -45 0 -45 0 -45 35 l0 35 60 0 c53 0
60 2 60 20 0 18 -7 20 -80 20 l-80 0 0 -53z"/>
<path d="M3279 2393 c-1 -10 -2 -34 -3 -53 0 -19 -5 -41 -9 -47 -4 -7 -4 -21
2 -31 5 -10 8 -34 7 -53 -4 -45 2 -59 25 -59 17 0 19 8 19 88 l0 87 30 -52
c40 -70 58 -69 98 5 l31 57 1 -92 c0 -86 1 -93 20 -93 18 0 20 7 20 58 0 32 5
63 12 70 9 9 9 12 0 12 -8 0 -12 20 -12 60 0 56 -2 60 -23 60 -18 0 -31 -15
-61 -71 l-38 -71 -37 69 c-26 48 -44 69 -59 71 -15 2 -22 -2 -23 -15z"/>
<path d="M3590 2357 c0 -29 -5 -58 -11 -64 -8 -8 -8 -13 0 -17 6 -4 11 -34 11
-67 l0 -59 80 0 c73 0 80 2 80 20 0 18 -7 20 -60 20 l-60 0 0 35 c0 35 0 35
45 35 38 0 45 3 45 20 0 17 -7 20 -45 20 -45 0 -45 0 -45 35 l0 35 60 0 c53 0
60 2 60 20 0 18 -7 20 -80 20 l-80 0 0 -53z"/>
<path d="M3855 2354 c-10 -31 -25 -59 -33 -61 -7 -3 -11 -12 -8 -19 3 -8 1
-27 -5 -42 -28 -69 -29 -82 -7 -82 13 0 24 10 31 30 11 28 15 30 65 30 50 0
54 -2 63 -30 7 -19 18 -30 30 -30 10 0 19 4 19 8 0 5 -20 62 -44 128 -38 103
-47 119 -68 122 -21 3 -26 -4 -43 -54z m69 -71 c7 -20 4 -23 -23 -23 -35 0
-35 -1 -19 52 11 39 12 39 24 16 6 -13 15 -33 18 -45z"/>
<path d="M4083 2391 c-53 -44 -14 -131 59 -131 43 0 67 -23 51 -48 -7 -11 -24
-17 -49 -17 -31 0 -41 5 -49 23 -13 30 -45 29 -45 -1 0 -40 39 -67 96 -67 40
0 55 5 72 23 48 51 12 127 -59 127 -39 0 -59 15 -59 42 0 37 79 37 95 0 5 -12
18 -22 27 -22 26 0 23 42 -5 68 -30 28 -102 30 -134 3z"/>
<path d="M4300 2350 c0 -40 -4 -60 -12 -60 -9 0 -9 -3 0 -12 7 -7 12 -28 12
-48 0 -53 32 -80 96 -80 60 0 94 28 94 76 0 17 5 35 12 42 9 9 9 15 0 24 -7 7
-12 36 -12 65 0 46 -3 53 -20 53 -19 0 -20 -7 -20 -98 0 -108 -6 -122 -55
-122 -49 0 -55 14 -55 122 0 91 -1 98 -20 98 -18 0 -20 -7 -20 -60z"/>
<path d="M4570 2357 c0 -29 -5 -58 -12 -65 -9 -9 -9 -15 0 -24 7 -7 12 -36 12
-65 0 -46 3 -53 20 -53 18 0 20 7 20 55 0 48 2 55 20 55 15 0 28 -16 47 -55
21 -42 32 -55 50 -55 l22 0 -26 56 -25 55 21 23 c28 30 27 77 -2 104 -19 18
-35 22 -85 22 l-62 0 0 -53z m121 -3 c20 -24 -1 -48 -45 -52 -35 -3 -36 -2
-36 32 0 34 2 36 34 36 18 0 39 -7 47 -16z"/>
<path d="M4810 2357 c0 -29 -5 -58 -12 -65 -9 -9 -9 -15 0 -24 7 -7 12 -36 12
-65 l0 -53 80 0 c73 0 80 2 80 20 0 18 -7 20 -60 20 l-60 0 0 35 c0 35 0 35
45 35 38 0 45 3 45 20 0 17 -7 20 -45 20 -45 0 -45 0 -45 35 l0 35 60 0 c53 0
60 2 60 20 0 18 -7 20 -80 20 l-80 0 0 -53z"/>
<path d="M5043 2391 c-53 -44 -14 -131 59 -131 43 0 67 -23 51 -48 -7 -11 -24
-17 -49 -17 -31 0 -41 5 -49 23 -13 30 -45 29 -45 -1 0 -40 39 -67 96 -67 40
0 55 5 72 23 48 51 12 127 -60 127 -39 0 -62 19 -56 47 5 29 80 25 93 -4 5
-13 18 -23 27 -23 26 0 23 42 -5 68 -30 28 -102 30 -134 3z"/>
<path d="M3341 1812 c-41 -6 -69 -32 -87 -77 -13 -36 -14 -50 -4 -79 24 -74
102 -106 169 -71 30 15 61 69 61 105 0 26 -26 84 -45 100 -19 15 -66 26 -94
22z m76 -37 c51 -36 50 -135 -2 -169 -95 -62 -199 73 -120 158 28 30 87 36
122 11z"/>
<path d="M2630 1690 l0 -121 56 3 c49 3 60 7 77 30 21 28 21 28 2 65 -11 21
-18 53 -16 71 4 48 -21 72 -76 72 l-43 0 0 -120z m94 78 c16 -26 -4 -52 -43
-56 -30 -3 -31 -2 -31 38 0 40 1 41 31 38 18 -2 37 -11 43 -20z m16 -98 c24
-24 24 -29 4 -58 -11 -16 -25 -22 -55 -22 l-39 0 0 50 0 50 35 0 c22 0 43 -8
55 -20z"/>
<path d="M2839 1785 c0 -14 0 -45 0 -70 0 -25 0 -67 0 -95 l1 -50 71 0 c44 0
68 4 64 10 -3 6 -31 10 -61 10 l-54 0 0 45 0 45 50 0 c28 0 50 5 50 10 0 6
-22 10 -50 10 l-50 0 0 45 0 45 60 0 c33 0 60 4 60 10 0 6 -30 10 -70 10 -68
0 -70 -1 -71 -25z"/>
<path d="M3030 1802 c0 -5 18 -34 40 -65 35 -49 40 -62 40 -111 0 -31 5 -56
10 -56 6 0 10 26 10 58 0 52 4 64 40 112 22 29 40 57 40 62 0 20 -20 4 -51
-42 -19 -27 -37 -50 -40 -50 -3 0 -21 22 -40 50 -32 47 -49 61 -49 42z"/>
<path d="M3550 1690 c0 -145 18 -163 22 -23 l3 97 69 -97 c37 -53 72 -97 77
-97 5 0 9 55 9 122 0 142 -18 153 -22 14 l-3 -90 -69 97 c-37 53 -72 97 -77
97 -5 0 -9 -54 -9 -120z"/>
<path d="M3820 1690 l0 -120 49 0 c38 0 56 6 80 26 90 75 34 214 -85 214 l-44
0 0 -120z m100 85 c37 -19 50 -43 50 -93 0 -51 -43 -92 -96 -92 l-34 0 0 100
0 100 25 0 c15 0 39 -7 55 -15z"/>
<path d="M4062 1588 c7 -19 38 -22 38 -4 0 10 -9 16 -21 16 -12 0 -19 -5 -17
-12z"/>
</g>
</svg>
